<svg width="512" height="512" viewBox="0 0 512 512" fill="none" xmlns="http://www.w3.org/2000/svg">
<path d="M351.271 45.0098C345.81 36.0722 337.192 29.0133 326.396 25.6838C315.6 22.3543 304.504 23.3332 294.957 27.6421C300.418 36.5797 309.036 43.6386 319.832 46.9681C330.628 50.2976 341.725 49.3187 351.271 45.0098Z" fill="#6CB866"/>
<path d="M411.71 76.0464C411.842 65.573 408.302 55.0107 400.933 46.4469C393.565 37.8831 383.649 32.8069 373.273 31.3749C373.141 41.8482 376.681 52.4105 384.05 60.9743C391.418 69.5382 401.334 74.6144 411.71 76.0464Z" fill="#6CB866"/>
<path d="M403.85 87.5727C398.728 78.4365 390.381 71.0593 379.718 67.3272C369.054 63.595 357.929 64.1569 348.227 68.1046C353.349 77.2408 361.696 84.618 372.36 88.3502C383.023 92.0824 394.149 91.5205 403.85 87.5727Z" fill="#6CB866"/>
<path d="M457.218 129.843C460.431 119.874 460.161 108.738 455.643 98.3824C451.125 88.0274 443.146 80.2543 433.653 75.8281C430.44 85.7974 430.71 96.9338 435.228 107.289C439.745 117.644 447.725 125.417 457.218 129.843Z" fill="#6CB866"/>
<path d="M446.31 138.541C444.108 128.301 438.306 118.792 429.216 112.083C420.126 105.374 409.329 102.632 398.895 103.545C401.097 113.785 406.899 123.295 415.989 130.004C425.079 136.713 435.876 139.455 446.31 138.541Z" fill="#6CB866"/>
<path d="M484.847 194.664C490.856 186.084 493.88 175.363 492.614 164.136C491.349 152.91 486.015 143.13 478.248 136.103C472.24 144.683 469.216 155.404 470.481 166.631C471.746 177.857 477.081 187.637 484.847 194.664Z" fill="#6CB866"/>
<path d="M471.861 199.761C472.774 189.327 470.032 178.53 463.323 169.44C456.614 160.35 447.105 154.548 436.865 152.346C435.952 162.78 438.693 173.577 445.402 182.667C452.111 191.757 461.621 197.559 471.861 199.761Z" fill="#6CB866"/>
<path d="M492.143 264.75C500.413 258.322 506.462 248.967 508.562 237.867C510.661 226.766 508.446 215.849 503.095 206.844C494.825 213.272 488.776 222.627 486.676 233.727C484.577 244.828 486.792 255.745 492.143 264.75Z" fill="#6CB866"/>
<path d="M478.231 265.793C482.179 256.091 482.741 244.966 479.009 234.303C475.277 223.639 467.899 215.292 458.763 210.17C454.815 219.872 454.254 230.997 457.986 241.661C461.718 252.324 469.095 260.671 478.231 265.793Z" fill="#6CB866"/>
<path d="M478.452 333.872C488.249 330.169 496.788 323.014 502.068 313.026C507.347 303.038 508.449 291.953 505.991 281.771C496.194 285.475 487.655 292.629 482.376 302.617C477.096 312.606 475.994 323.691 478.452 333.872Z" fill="#6CB866"/>
<path d="M464.851 330.767C471.484 322.661 475.301 312.196 474.879 300.906C474.457 289.616 469.87 279.465 462.65 271.877C456.017 279.983 452.2 290.448 452.621 301.738C453.043 313.028 457.631 323.179 464.851 330.767Z" fill="#6CB866"/>
<path d="M445 395.889C455.453 395.237 465.721 390.917 473.71 382.928C481.699 374.94 486.019 364.672 486.671 354.218C476.217 354.87 465.949 359.19 457.96 367.178C449.972 375.167 445.651 385.435 445 395.889Z" fill="#6CB866"/>
<path d="M432.918 388.913C441.645 383.122 448.377 374.246 451.301 363.334C454.225 352.421 452.833 341.369 448.17 331.99C439.443 337.781 432.711 346.656 429.787 357.569C426.863 368.482 428.255 379.534 432.918 388.913Z" fill="#6CB866"/>
<path d="M394.753 445.29C404.935 447.748 416.02 446.646 426.008 441.366C435.997 436.087 443.151 427.548 446.855 417.751C436.673 415.293 425.588 416.395 415.6 421.675C405.612 426.954 398.457 435.493 394.753 445.29Z" fill="#6CB866"/>
<path d="M385.264 435.064C395.31 432.102 404.359 425.605 410.369 416.038C416.38 406.472 418.306 395.5 416.615 385.163C406.568 388.126 397.52 394.623 391.509 404.189C385.499 413.755 383.573 424.727 385.264 435.064Z" fill="#6CB866"/>
<path d="M332.175 477.683C341.179 483.034 352.096 485.25 363.197 483.15C374.298 481.05 383.652 475.001 390.08 466.731C381.076 461.38 370.159 459.165 359.058 461.264C347.957 463.364 338.603 469.413 332.175 477.683Z" fill="#6CB866"/>
<path d="M326.123 465.113C336.596 465.245 347.158 461.705 355.722 454.336C364.286 446.968 369.362 437.052 370.794 426.676C360.321 426.544 349.759 430.084 341.195 437.453C332.631 444.821 327.555 454.737 326.123 465.113Z" fill="#6CB866"/>
<path d="M185.877 465.113C184.445 454.737 179.369 444.821 170.805 437.453C162.241 430.084 151.679 426.544 141.206 426.676C142.638 437.052 147.714 446.968 156.278 454.336C164.842 461.705 175.404 465.245 185.877 465.113Z" fill="#6CB866"/>
<path d="M179.825 477.683C173.397 469.413 164.043 463.364 152.942 461.264C141.841 459.165 130.924 461.38 121.92 466.731C128.348 475.001 137.702 481.05 148.803 483.15C159.904 485.249 170.821 483.034 179.825 477.683Z" fill="#6CB866"/>
<path d="M126.736 435.064C128.427 424.727 126.501 413.755 120.491 404.189C114.48 394.623 105.432 388.125 95.385 385.163C93.6937 395.5 95.6202 406.472 101.63 416.038C107.641 425.604 116.689 432.102 126.736 435.064Z" fill="#6CB866"/>
<path d="M117.246 445.29C113.543 435.493 106.388 426.954 96.4002 421.675C86.412 416.395 75.327 415.293 65.1453 417.751C68.849 427.548 76.0033 436.087 85.9915 441.366C95.9796 446.646 107.065 447.748 117.246 445.29Z" fill="#6CB866"/>
<path d="M79.0824 388.913C83.7448 379.534 85.1373 368.482 82.2133 357.569C79.2893 346.656 72.5571 337.781 63.8297 331.99C59.1672 341.369 57.7747 352.421 60.6988 363.334C63.6228 374.246 70.3549 383.122 79.0824 388.913Z" fill="#6CB866"/>
<path d="M67.0003 395.889C66.3485 385.435 62.0283 375.167 54.0397 367.178C46.0511 359.19 35.7832 354.87 25.3293 354.218C25.9811 364.672 30.3013 374.94 38.2899 382.928C46.2786 390.917 56.5465 395.237 67.0003 395.889Z" fill="#6CB866"/>
<path d="M47.1492 330.767C54.3687 323.179 58.9566 313.027 59.3785 301.738C59.8004 290.448 55.9828 279.983 49.3498 271.877C42.1303 279.465 37.5424 289.616 37.1205 300.906C36.6987 312.196 40.5162 322.661 47.1492 330.767Z" fill="#6CB866"/>
<path d="M33.548 333.872C36.006 323.691 34.9037 312.606 29.6242 302.617C24.3446 292.629 15.806 285.475 6.00847 281.771C3.55049 291.953 4.65281 303.038 9.93234 313.026C15.2119 323.014 23.7505 330.169 33.548 333.872Z" fill="#6CB866"/>
<path d="M33.7688 265.793C42.905 260.671 50.2822 252.324 54.0144 241.661C57.7465 230.997 57.1847 219.872 53.2369 210.17C44.1007 215.292 36.7235 223.639 32.9913 234.303C29.2592 244.966 29.821 256.091 33.7688 265.793Z" fill="#6CB866"/>
<path d="M19.8568 264.75C25.2078 255.745 27.4232 244.828 25.3237 233.727C23.2241 222.627 17.1748 213.272 8.90502 206.844C3.55402 215.849 1.33862 226.766 3.43816 237.867C5.53769 248.967 11.5871 258.322 19.8568 264.75Z" fill="#6CB866"/>
<path d="M40.1393 199.761C50.3793 197.559 59.8888 191.757 66.5977 182.667C73.3067 173.577 76.0486 162.78 75.1353 152.346C64.8953 154.548 55.3859 160.35 48.6769 169.44C41.9679 178.53 39.226 189.327 40.1393 199.761Z" fill="#6CB866"/>
<path d="M27.1527 194.664C34.9196 187.637 40.254 177.857 41.5192 166.631C42.7845 155.404 39.7605 144.683 33.7524 136.103C25.9855 143.13 20.6511 152.91 19.3859 164.136C18.1206 175.363 21.1446 186.084 27.1527 194.664Z" fill="#6CB866"/>
<path d="M65.6896 138.541C76.1239 139.455 86.9209 136.713 96.0108 130.004C105.101 123.295 110.903 113.785 113.105 103.545C102.671 102.632 91.8738 105.374 82.7839 112.083C73.694 118.792 67.8919 128.301 65.6896 138.541Z" fill="#6CB866"/>
<path d="M54.7819 129.843C64.2749 125.417 72.2545 117.644 76.7721 107.289C81.2897 96.9338 81.5597 85.7974 78.3469 75.8281C68.854 80.2543 60.8744 88.0274 56.3568 98.3824C51.8392 108.738 51.5692 119.874 54.7819 129.843Z" fill="#6CB866"/>
<path d="M108.15 87.5727C117.852 91.5205 128.977 92.0824 139.64 88.3502C150.304 84.618 158.651 77.2408 163.773 68.1046C154.071 64.1569 142.946 63.595 132.282 67.3272C121.619 71.0593 113.272 78.4365 108.15 87.5727Z" fill="#6CB866"/>
<path d="M100.29 76.0464C110.666 74.6144 120.582 69.5382 127.95 60.9743C135.319 52.4105 138.859 41.8482 138.727 31.3749C128.351 32.8069 118.435 37.8831 111.067 46.4469C103.698 55.0107 100.158 65.573 100.29 76.0464Z" fill="#6CB866"/>
<path d="M160.729 45.0098C170.275 49.3187 181.372 50.2976 192.168 46.9681C202.964 43.6386 211.582 36.5797 217.043 27.6421C207.496 23.3332 196.4 22.3543 185.604 25.6838C174.808 29.0133 166.19 36.0722 160.729 45.0098Z" fill="#6CB866"/>
<path d="M165.052 144.327L256.13 98.7878L347.208 144.327L256.13 189.866L165.052 144.327Z" fill="black"/>
<path fill-rule="evenodd" clip-rule="evenodd" d="M307.361 221.894C291.189 226.974 273.979 229.712 256.13 229.712C238.281 229.712 221.071 226.974 204.899 221.894V172.789L256.13 198.404L307.361 172.789V221.894Z" fill="black"/>
<path fill-rule="evenodd" clip-rule="evenodd" d="M179.297 297.03C179.288 297.359 179.283 297.689 179.283 298.021C179.283 316.884 194.574 332.175 213.437 332.175C213.685 332.175 213.931 332.172 214.177 332.167C232.698 331.773 247.591 316.636 247.591 298.021C247.591 279.158 232.3 263.867 213.437 263.867C194.906 263.867 179.821 278.625 179.297 297.03ZM331.404 220.289C308.611 231.193 283.083 237.3 256.13 237.3C229.176 237.3 203.649 231.193 180.856 220.289C171.278 215.706 162.183 210.277 153.667 204.097L180.859 258.48C169.467 267.877 162.206 282.101 162.206 298.021C162.206 326.315 185.143 349.252 213.437 349.252C217.416 349.252 221.289 348.799 225.007 347.94C225.181 347.9 225.354 347.859 225.528 347.817L256.13 409.022L286.732 347.817C290.609 348.755 294.658 349.252 298.823 349.252C327.117 349.252 350.054 326.315 350.054 298.021C350.054 282.105 342.797 267.885 331.411 258.488L331.401 258.48L358.593 204.097C350.077 210.277 340.982 215.706 331.404 220.289ZM298.299 332.171C298.473 332.174 298.648 332.175 298.823 332.175C317.686 332.175 332.977 316.884 332.977 298.021C332.977 297.618 332.97 297.217 332.956 296.818C332.322 278.512 317.283 263.867 298.823 263.867C279.96 263.867 264.668 279.158 264.668 298.021C264.668 316.709 279.677 331.891 298.299 332.171ZM256.13 326.35C260.029 332.214 265.104 337.229 271.019 341.058L256.13 370.836L241.241 341.058C247.155 337.229 252.231 332.214 256.13 326.35Z" fill="black"/>
<path d="M230.514 298.021C230.514 307.452 222.869 315.098 213.437 315.098C204.006 315.098 196.36 307.452 196.36 298.021C196.36 288.589 204.006 280.944 213.437 280.944C222.869 280.944 230.514 288.589 230.514 298.021Z" fill="black"/>
<path d="M315.9 298.021C315.9 307.452 308.254 315.098 298.823 315.098C289.391 315.098 281.746 307.452 281.746 298.021C281.746 288.589 289.391 280.944 298.823 280.944C308.254 280.944 315.9 288.589 315.9 298.021Z" fill="black"/>
</svg>
