<svg width="640" height="780" viewBox="0 0 640 780" fill="none" xmlns="http://www.w3.org/2000/svg">
<path d="M386.837 139.21C382.999 132.93 376.943 127.97 369.357 125.63C361.771 123.291 353.973 123.978 347.265 127.006C351.103 133.287 357.158 138.247 364.744 140.587C372.331 142.926 380.128 142.238 386.837 139.21Z" fill="#6CB866"/>
<path d="M429.307 161.02C429.399 153.66 426.912 146.238 421.734 140.22C416.556 134.203 409.588 130.635 402.297 129.629C402.204 136.989 404.692 144.411 409.87 150.429C415.048 156.446 422.016 160.013 429.307 161.02Z" fill="#6CB866"/>
<path d="M423.783 169.119C420.184 162.699 414.319 157.515 406.826 154.893C399.333 152.27 391.515 152.665 384.697 155.439C388.297 161.859 394.162 167.043 401.655 169.666C409.148 172.288 416.966 171.893 423.783 169.119Z" fill="#6CB866"/>
<path d="M461.285 198.823C463.542 191.817 463.353 183.992 460.178 176.715C457.004 169.439 451.396 163.977 444.726 160.866C442.468 167.872 442.658 175.697 445.832 182.974C449.007 190.25 454.614 195.712 461.285 198.823Z" fill="#6CB866"/>
<path d="M453.62 204.935C452.072 197.739 447.995 191.057 441.608 186.342C435.22 181.628 427.633 179.701 420.301 180.343C421.849 187.539 425.926 194.221 432.313 198.935C438.701 203.65 446.288 205.576 453.62 204.935Z" fill="#6CB866"/>
<path d="M480.7 244.372C484.922 238.343 487.047 230.809 486.158 222.92C485.268 215.031 481.52 208.159 476.062 203.221C471.84 209.25 469.715 216.784 470.605 224.673C471.494 232.562 475.242 239.434 480.7 244.372Z" fill="#6CB866"/>
<path d="M471.574 247.954C472.216 240.622 470.289 233.034 465.575 226.647C460.861 220.26 454.178 216.183 446.983 214.635C446.341 221.967 448.268 229.554 452.982 235.942C457.696 242.329 464.379 246.406 471.574 247.954Z" fill="#6CB866"/>
<path d="M485.827 293.62C491.638 289.104 495.889 282.53 497.364 274.73C498.839 266.929 497.282 259.258 493.522 252.931C487.711 257.448 483.46 264.021 481.985 271.821C480.51 279.622 482.066 287.293 485.827 293.62Z" fill="#6CB866"/>
<path d="M476.051 294.354C478.825 287.536 479.22 279.719 476.597 272.226C473.974 264.732 468.79 258.867 462.371 255.268C459.596 262.085 459.202 269.903 461.824 277.396C464.447 284.889 469.631 290.754 476.051 294.354Z" fill="#6CB866"/>
<path d="M476.206 342.193C483.09 339.59 489.09 334.563 492.8 327.544C496.51 320.526 497.285 312.736 495.558 305.582C488.673 308.184 482.673 313.211 478.963 320.23C475.253 327.249 474.479 335.038 476.206 342.193Z" fill="#6CB866"/>
<path d="M466.648 340.011C471.309 334.315 473.992 326.961 473.695 319.027C473.399 311.094 470.175 303.961 465.102 298.629C460.441 304.325 457.758 311.679 458.055 319.612C458.351 327.545 461.575 334.678 466.648 340.011Z" fill="#6CB866"/>
<path d="M452.699 385.771C460.045 385.313 467.26 382.278 472.874 376.664C478.487 371.05 481.523 363.835 481.981 356.489C474.635 356.947 467.42 359.983 461.806 365.597C456.193 371.21 453.157 378.425 452.699 385.771Z" fill="#6CB866"/>
<path d="M444.209 380.87C450.342 376.8 455.072 370.563 457.127 362.895C459.182 355.227 458.203 347.46 454.927 340.87C448.794 344.939 444.064 351.176 442.009 358.844C439.954 366.512 440.933 374.279 444.209 380.87Z" fill="#6CB866"/>
<path d="M417.391 420.486C424.546 422.213 432.335 421.438 439.354 417.728C446.373 414.018 451.4 408.018 454.003 401.134C446.848 399.406 439.059 400.181 432.04 403.891C425.021 407.601 419.994 413.601 417.391 420.486Z" fill="#6CB866"/>
<path d="M410.723 413.299C417.783 411.218 424.141 406.652 428.365 399.93C432.588 393.208 433.942 385.498 432.753 378.235C425.694 380.316 419.335 384.882 415.112 391.604C410.888 398.326 409.535 406.036 410.723 413.299Z" fill="#6CB866"/>
<path d="M373.418 443.248C379.745 447.008 387.416 448.565 395.217 447.089C403.017 445.614 409.59 441.363 414.107 435.552C407.78 431.792 400.109 430.235 392.308 431.711C384.508 433.186 377.935 437.437 373.418 443.248Z" fill="#6CB866"/>
<path d="M369.165 434.415C376.524 434.508 383.947 432.02 389.964 426.842C395.982 421.664 399.549 414.696 400.555 407.405C393.196 407.313 385.774 409.8 379.756 414.978C373.738 420.156 370.171 427.124 369.165 434.415Z" fill="#6CB866"/>
<path d="M270.615 434.415C269.609 427.124 266.042 420.156 260.024 414.978C254.006 409.8 246.584 407.313 239.225 407.405C240.231 414.696 243.798 421.664 249.816 426.842C255.833 432.02 263.255 434.508 270.615 434.415Z" fill="#6CB866"/>
<path d="M266.362 443.248C261.845 437.437 255.272 433.186 247.472 431.71C239.671 430.235 232 431.792 225.672 435.552C230.189 441.363 236.762 445.614 244.563 447.089C252.363 448.565 260.035 447.008 266.362 443.248Z" fill="#6CB866"/>
<path d="M229.057 413.299C230.245 406.036 228.891 398.326 224.668 391.604C220.445 384.882 214.086 380.316 207.027 378.235C205.838 385.498 207.192 393.208 211.415 399.93C215.639 406.652 221.997 411.218 229.057 413.299Z" fill="#6CB866"/>
<path d="M222.388 420.485C219.786 413.601 214.759 407.601 207.74 403.891C200.721 400.181 192.932 399.406 185.777 401.134C188.38 408.018 193.407 414.018 200.426 417.728C207.444 421.438 215.234 422.213 222.388 420.485Z" fill="#6CB866"/>
<path d="M195.571 380.87C198.847 374.279 199.826 366.512 197.771 358.844C195.716 351.176 190.986 344.939 184.853 340.87C181.577 347.46 180.598 355.227 182.653 362.895C184.707 370.563 189.438 376.8 195.571 380.87Z" fill="#6CB866"/>
<path d="M187.081 385.771C186.623 378.425 183.587 371.21 177.973 365.597C172.36 359.983 165.145 356.947 157.799 356.489C158.257 363.835 161.293 371.05 166.906 376.664C172.52 382.278 179.735 385.313 187.081 385.771Z" fill="#6CB866"/>
<path d="M173.132 340.011C178.205 334.678 181.429 327.545 181.725 319.612C182.021 311.679 179.339 304.325 174.678 298.629C169.605 303.961 166.381 311.094 166.084 319.027C165.788 326.961 168.471 334.315 173.132 340.011Z" fill="#6CB866"/>
<path d="M163.574 342.193C165.301 335.038 164.527 327.249 160.817 320.23C157.107 313.211 151.107 308.184 144.222 305.581C142.495 312.736 143.27 320.526 146.979 327.544C150.689 334.563 156.689 339.59 163.574 342.193Z" fill="#6CB866"/>
<path d="M163.729 294.354C170.149 290.754 175.333 284.889 177.956 277.396C180.578 269.903 180.183 262.085 177.409 255.268C170.989 258.867 165.805 264.732 163.183 272.225C160.56 279.719 160.955 287.536 163.729 294.354Z" fill="#6CB866"/>
<path d="M153.953 293.62C157.713 287.293 159.27 279.622 157.795 271.821C156.319 264.021 152.069 257.448 146.258 252.931C142.497 259.258 140.941 266.929 142.416 274.73C143.891 282.53 148.142 289.104 153.953 293.62Z" fill="#6CB866"/>
<path d="M168.206 247.954C175.401 246.406 182.083 242.329 186.798 235.942C191.512 229.554 193.439 221.967 192.797 214.635C185.602 216.183 178.919 220.26 174.205 226.647C169.491 233.034 167.564 240.622 168.206 247.954Z" fill="#6CB866"/>
<path d="M159.08 244.372C164.538 239.434 168.286 232.562 169.175 224.673C170.064 216.784 167.939 209.25 163.718 203.221C158.26 208.159 154.511 215.031 153.622 222.92C152.733 230.809 154.858 238.343 159.08 244.372Z" fill="#6CB866"/>
<path d="M186.16 204.935C193.492 205.576 201.079 203.65 207.466 198.935C213.854 194.221 217.931 187.539 219.478 180.343C212.146 179.701 204.559 181.628 198.172 186.342C191.785 191.057 187.707 197.739 186.16 204.935Z" fill="#6CB866"/>
<path d="M178.495 198.823C185.166 195.712 190.773 190.25 193.947 182.974C197.122 175.697 197.312 167.872 195.054 160.866C188.383 163.977 182.776 169.439 179.602 176.715C176.427 183.992 176.238 191.817 178.495 198.823Z" fill="#6CB866"/>
<path d="M215.996 169.119C222.814 171.893 230.632 172.288 238.125 169.666C245.618 167.043 251.483 161.859 255.082 155.439C248.265 152.665 240.447 152.27 232.954 154.893C225.461 157.515 219.596 162.699 215.996 169.119Z" fill="#6CB866"/>
<path d="M210.473 161.02C217.764 160.013 224.732 156.446 229.91 150.429C235.088 144.411 237.576 136.989 237.483 129.629C230.192 130.635 223.224 134.203 218.046 140.22C212.868 146.238 210.38 153.66 210.473 161.02Z" fill="#6CB866"/>
<path d="M252.943 139.21C259.652 142.238 267.449 142.926 275.035 140.587C282.622 138.247 288.677 133.287 292.515 127.006C285.807 123.978 278.009 123.291 270.423 125.63C262.837 127.97 256.781 132.93 252.943 139.21Z" fill="#6CB866"/>
<path d="M255.981 209L319.981 177L383.981 209L319.981 241L255.981 209Z" fill="black"/>
<path fill-rule="evenodd" clip-rule="evenodd" d="M355.981 263.506C344.617 267.076 332.524 269 319.981 269C307.439 269 295.346 267.076 283.981 263.506V229L319.981 247L355.981 229V263.506Z" fill="black"/>
<path fill-rule="evenodd" clip-rule="evenodd" d="M265.991 316.304C265.985 316.535 265.981 316.767 265.981 317C265.981 330.255 276.726 341 289.981 341C290.155 341 290.329 340.998 290.502 340.995C303.516 340.718 313.981 330.081 313.981 317C313.981 303.745 303.236 293 289.981 293C276.959 293 266.36 303.371 265.991 316.304ZM372.876 262.378C356.859 270.041 338.921 274.332 319.981 274.332C301.041 274.332 283.103 270.041 267.087 262.378C260.356 259.158 253.965 255.343 247.981 251L267.089 289.215C259.084 295.818 253.981 305.813 253.981 317C253.981 336.882 270.099 353 289.981 353C292.777 353 295.499 352.681 298.111 352.078C298.234 352.05 298.355 352.021 298.477 351.992L319.981 395L341.485 351.992C344.21 352.651 347.055 353 349.981 353C369.864 353 385.981 336.882 385.981 317C385.981 305.816 380.882 295.824 372.881 289.221L372.874 289.215L391.981 251C385.998 255.343 379.606 259.158 372.876 262.378ZM349.613 340.997C349.735 340.999 349.858 341 349.981 341C363.236 341 373.981 330.255 373.981 317C373.981 316.717 373.976 316.435 373.967 316.154C373.521 303.291 362.953 293 349.981 293C336.726 293 325.981 303.745 325.981 317C325.981 330.132 336.528 340.8 349.613 340.997ZM319.981 336.907C322.721 341.028 326.288 344.552 330.444 347.242L319.981 368.167L309.519 347.242C313.675 344.552 317.241 341.028 319.981 336.907Z" fill="black"/>
<path d="M301.981 317C301.981 323.627 296.609 329 289.981 329C283.354 329 277.981 323.627 277.981 317C277.981 310.373 283.354 305 289.981 305C296.609 305 301.981 310.373 301.981 317Z" fill="black"/>
<path d="M361.981 317C361.981 323.627 356.609 329 349.981 329C343.354 329 337.981 323.627 337.981 317C337.981 310.373 343.354 305 349.981 305C356.609 305 361.981 310.373 361.981 317Z" fill="black"/>
<path d="M128.328 606V597.797L135.641 596.391V548.297H123.219L122.469 556.453H112.109V537.75H173V556.453H162.594L161.844 548.297H149.328V596.391L156.688 597.797V606H128.328ZM211.531 606.984C206.125 606.984 201.359 606.047 197.234 604.172C193.141 602.297 189.953 599.578 187.672 596.016C185.391 592.453 184.25 588.125 184.25 583.031V547.406L176.984 546V537.75H205.25V546L197.938 547.406V583.031C197.938 586.031 198.484 588.531 199.578 590.531C200.672 592.531 202.234 594.031 204.266 595.031C206.297 596 208.719 596.484 211.531 596.484C214.406 596.484 216.859 596 218.891 595.031C220.953 594.031 222.531 592.531 223.625 590.531C224.719 588.531 225.266 586.031 225.266 583.031V547.406L218 546V537.75H246.266V546L238.953 547.406V583.031C238.953 588.125 237.797 592.469 235.484 596.062C233.203 599.625 230 602.344 225.875 604.219C221.781 606.062 217 606.984 211.531 606.984ZM266.422 606V597.797L273.734 596.391V548.297H261.312L260.562 556.453H250.203V537.75H311.094V556.453H300.688L299.938 548.297H287.422V596.391L294.781 597.797V606H266.422ZM345.828 606.984C341.234 606.984 337.047 606.125 333.266 604.406C329.484 602.688 326.219 600.281 323.469 597.188C320.75 594.062 318.656 590.406 317.188 586.219C315.719 582 314.984 577.391 314.984 572.391V571.359C314.984 566.391 315.719 561.812 317.188 557.625C318.656 553.406 320.75 549.734 323.469 546.609C326.188 543.484 329.438 541.062 333.219 539.344C337 537.625 341.188 536.766 345.781 536.766C350.406 536.766 354.625 537.625 358.438 539.344C362.25 541.062 365.531 543.484 368.281 546.609C371.031 549.734 373.141 553.406 374.609 557.625C376.109 561.812 376.859 566.391 376.859 571.359V572.391C376.859 577.391 376.109 582 374.609 586.219C373.141 590.406 371.031 594.062 368.281 597.188C365.531 600.281 362.25 602.688 358.438 604.406C354.656 606.125 350.453 606.984 345.828 606.984ZM345.828 596.344C349.703 596.344 352.922 595.344 355.484 593.344C358.047 591.344 359.969 588.547 361.25 584.953C362.562 581.359 363.219 577.172 363.219 572.391V571.266C363.219 566.547 362.562 562.406 361.25 558.844C359.938 555.25 357.984 552.453 355.391 550.453C352.828 548.453 349.625 547.453 345.781 547.453C341.969 547.453 338.797 548.453 336.266 550.453C333.734 552.422 331.828 555.188 330.547 558.75C329.297 562.312 328.672 566.484 328.672 571.266V572.391C328.672 577.172 329.297 581.359 330.547 584.953C331.828 588.547 333.734 591.344 336.266 593.344C338.828 595.344 342.016 596.344 345.828 596.344ZM404.141 606L388.297 546.703L381.312 546V537.75H408.781V546L401.422 547.078L409.438 580.266L410.891 586.359H411.172L412.906 580.266L426.406 537.75H436.484L450.5 581.438L452.141 586.828H452.422L453.828 581.438L462.125 547.078L454.344 546V537.75H481.297V546L474.781 546.703L458.75 606H446.375L433.438 566.109L431.797 560.484H431.516L429.688 566.297L416.609 606H404.141ZM485.562 606V597.797L492.828 596.391V547.406L485.562 546V537.75H492.828H506.516H514.766V546L506.516 547.406V595.5H525.781L526.438 585.516H536.891V606H485.562Z" fill="black"/>
<path d="M123.932 664V661.293L125.795 661.029L134.268 638.406H138.574L146.941 661.029L148.805 661.293V664H140.666V661.293L142.494 660.959L141.141 656.934H131.613L130.225 660.959L132.07 661.293V664H123.932ZM132.773 653.541H139.998L136.676 644.066L136.447 643.381H136.342L136.096 644.102L132.773 653.541ZM152.714 664V661.293L155.509 660.766V641.658L152.714 641.131V638.406H155.509H159.939H162.945V641.131L159.939 641.658V660.607H167.937L168.236 656.74H171.628V664H152.714ZM181.743 664L175.784 641.395L173.358 641.131V638.406H182.815V641.131L180.09 641.535L183.237 654.684L183.887 657.373L183.993 657.391L184.801 654.684L189.899 638.406H193.362L198.6 654.947L199.373 657.566H199.479L200.164 654.947L203.364 641.535L200.481 641.131V638.406H209.762V641.131L207.495 641.395L201.606 664H197.528L192.377 647.881L191.727 645.561H191.621L190.936 647.916L185.75 664H181.743ZM210.015 664V661.293L211.879 661.029L220.351 638.406H224.658L233.025 661.029L234.888 661.293V664H226.75V661.293L228.578 660.959L227.224 656.934H217.697L216.308 660.959L218.154 661.293V664H210.015ZM218.857 653.541H226.082L222.759 644.066L222.531 643.381H222.425L222.179 644.102L218.857 653.541ZM241.223 664V661.293L244.001 660.766V655L236.302 641.482L233.981 641.131V638.406H243.614V641.131L241.171 641.447L245.917 650.412L246.304 651.186L246.374 651.15L246.743 650.43L251.876 641.447L248.975 641.131V638.406H258.415V641.131L256.007 641.482L248.413 654.648V660.766L251.208 661.293V664H241.223ZM271.904 664.369C270.158 664.369 268.535 664.152 267.035 663.719C265.535 663.285 264.076 662.564 262.658 661.557V655.668H266.086L266.648 659.482C267.27 659.928 268.031 660.285 268.934 660.555C269.848 660.824 270.838 660.959 271.904 660.959C272.947 660.959 273.82 660.812 274.523 660.52C275.238 660.215 275.783 659.793 276.158 659.254C276.533 658.715 276.721 658.076 276.721 657.338C276.721 656.658 276.557 656.055 276.229 655.527C275.9 655 275.355 654.531 274.594 654.121C273.832 653.699 272.801 653.312 271.5 652.961C269.59 652.445 267.99 651.836 266.701 651.133C265.424 650.43 264.457 649.586 263.801 648.602C263.156 647.617 262.834 646.457 262.834 645.121C262.834 643.75 263.203 642.537 263.941 641.482C264.691 640.428 265.729 639.596 267.053 638.986C268.377 638.377 269.906 638.066 271.641 638.055C273.539 638.031 275.215 638.277 276.668 638.793C278.133 639.309 279.369 639.982 280.377 640.814V646.316H277.02L276.387 642.73C275.906 642.391 275.279 642.104 274.506 641.869C273.744 641.623 272.842 641.5 271.799 641.5C270.908 641.5 270.123 641.646 269.443 641.939C268.764 642.232 268.23 642.648 267.844 643.188C267.457 643.715 267.264 644.348 267.264 645.086C267.264 645.73 267.434 646.293 267.773 646.773C268.113 647.254 268.682 647.693 269.479 648.092C270.275 648.479 271.354 648.871 272.713 649.27C275.49 650.008 277.594 651.027 279.023 652.328C280.453 653.629 281.168 655.287 281.168 657.303C281.168 658.721 280.781 659.963 280.008 661.029C279.246 662.084 278.168 662.904 276.773 663.49C275.391 664.076 273.768 664.369 271.904 664.369ZM296.088 664V661.293L298.883 660.766V641.658L296.088 641.131V638.406H315.582V644.998H312.137L311.838 641.816H303.313V649.059H312.295V652.486H303.313V660.625H312.313L312.612 657.373H316.022V664H296.088ZM320.67 664V661.293L322.902 660.871L330.443 651.186L323.394 641.553L321.25 641.131V638.406H330.531V641.131L328.105 641.359L333.045 648.25L337.843 641.359L335.418 641.131V638.406H344.646V641.131L342.343 641.553L335.629 650.922L343.134 660.871L345.49 661.293V664H336.015V661.293L338.353 661.064L333.045 653.805L327.683 661.064L329.916 661.293V664H320.67ZM349.399 664V661.293L352.194 660.766V641.658L349.399 641.131V638.406H352.194H361.405C363.315 638.406 364.95 638.74 366.309 639.408C367.68 640.076 368.729 641.008 369.456 642.203C370.182 643.387 370.546 644.775 370.546 646.369C370.546 647.963 370.182 649.357 369.456 650.553C368.729 651.736 367.68 652.656 366.309 653.312C364.95 653.969 363.315 654.297 361.405 654.297H356.624V660.766L359.419 661.293V664H349.399ZM356.624 650.869H361.405C362.975 650.869 364.153 650.447 364.938 649.604C365.723 648.76 366.116 647.693 366.116 646.404C366.116 645.092 365.723 644.002 364.938 643.135C364.153 642.268 362.975 641.834 361.405 641.834H356.624V650.869ZM374.297 664V661.293L377.092 660.766V641.658L374.297 641.131V638.406H377.092H381.521H384.527V641.131L381.521 641.658V660.607H389.52L389.818 656.74H393.211V664H374.297ZM407.72 664.369C406.021 664.369 404.486 664.053 403.114 663.42C401.743 662.775 400.566 661.873 399.581 660.713C398.609 659.553 397.859 658.182 397.331 656.6C396.804 655.018 396.54 653.283 396.54 651.396V651.01C396.54 649.135 396.804 647.406 397.331 645.824C397.859 644.242 398.609 642.871 399.581 641.711C400.566 640.539 401.743 639.637 403.114 639.004C404.486 638.359 406.015 638.037 407.702 638.037C409.448 638.037 411.013 638.359 412.396 639.004C413.779 639.637 414.956 640.539 415.929 641.711C416.902 642.871 417.646 644.242 418.161 645.824C418.677 647.406 418.935 649.135 418.935 651.01V651.396C418.935 653.283 418.677 655.018 418.161 656.6C417.646 658.182 416.902 659.553 415.929 660.713C414.956 661.873 413.779 662.775 412.396 663.42C411.013 664.053 409.454 664.369 407.72 664.369ZM407.72 660.854C409.267 660.854 410.538 660.461 411.534 659.676C412.542 658.879 413.286 657.771 413.767 656.354C414.259 654.936 414.505 653.283 414.505 651.396V650.975C414.505 649.111 414.259 647.477 413.767 646.07C413.275 644.664 412.525 643.562 411.517 642.766C410.521 641.969 409.249 641.57 407.702 641.57C406.226 641.57 404.989 641.969 403.993 642.766C402.997 643.562 402.247 644.664 401.743 646.07C401.239 647.477 400.987 649.111 400.987 650.975V651.396C400.987 653.271 401.239 654.924 401.743 656.354C402.247 657.771 402.997 658.879 403.993 659.676C405.001 660.461 406.243 660.854 407.72 660.854ZM423.038 664V661.293L425.832 660.766V641.658L423.038 641.131V638.406H434.868C436.789 638.406 438.43 638.705 439.789 639.303C441.149 639.889 442.186 640.732 442.901 641.834C443.616 642.936 443.973 644.266 443.973 645.824C443.973 647.324 443.616 648.631 442.901 649.744C442.198 650.857 441.207 651.725 439.93 652.346C438.664 652.955 437.176 653.271 435.465 653.295L430.262 653.348V660.766L433.057 661.293V664H423.038ZM439.684 664L434.797 652.223L438.946 651.537L443.094 660.836L445.098 661.258V664H439.684ZM430.262 649.902H434.674C436.338 649.902 437.569 649.568 438.366 648.9C439.163 648.221 439.561 647.236 439.561 645.947C439.561 644.693 439.174 643.697 438.401 642.959C437.627 642.209 436.45 641.834 434.868 641.834H430.262V649.902ZM449.412 664V661.293L452.207 660.766V641.658L449.412 641.131V638.406H459.414V641.131L456.636 641.658V660.766L459.414 661.293V664H449.412ZM463.569 664V661.293L466.364 660.766V641.658L463.569 641.131V638.406H466.364H470.846L482.589 657.092L482.694 657.057V641.658L479.46 641.131V638.406H486.684H489.479V641.131L486.684 641.658V664H482.483L470.46 645.385L470.354 645.402V660.766L473.589 661.293V664H463.569ZM505.236 664.369C502.775 664.369 500.66 663.836 498.891 662.77C497.121 661.691 495.762 660.203 494.812 658.305C493.863 656.395 493.389 654.186 493.389 651.678V650.992C493.389 648.426 493.857 646.176 494.795 644.242C495.744 642.297 497.068 640.779 498.768 639.689C500.467 638.588 502.447 638.037 504.709 638.037C506.607 638.037 508.318 638.283 509.842 638.775C511.365 639.256 512.678 639.947 513.779 640.85V646.316H510.387L509.824 642.766C509.309 642.379 508.652 642.074 507.855 641.852C507.059 641.629 506.133 641.518 505.078 641.518C503.637 641.518 502.365 641.916 501.264 642.713C500.174 643.498 499.324 644.6 498.715 646.018C498.117 647.424 497.818 649.07 497.818 650.957V651.678C497.818 653.541 498.105 655.164 498.68 656.547C499.266 657.93 500.115 659.002 501.229 659.764C502.354 660.525 503.719 660.906 505.324 660.906C506.344 660.906 507.24 660.812 508.014 660.625C508.799 660.438 509.467 660.203 510.018 659.922V654.877L505.834 654.631V651.484H514.447V661.645C513.475 662.406 512.232 663.051 510.721 663.578C509.221 664.105 507.393 664.369 505.236 664.369Z" fill="#6CB866"/>
</svg>
