<svg width="512" height="512" viewBox="0 0 512 512" fill="none" xmlns="http://www.w3.org/2000/svg">
<path d="M322.855 109.21C319.018 102.93 312.962 97.9698 305.376 95.6302C297.79 93.2906 289.992 93.9784 283.284 97.0063C287.121 103.287 293.177 108.247 300.763 110.587C308.349 112.926 316.147 112.238 322.855 109.21Z" fill="#6CB866"/>
<path d="M365.325 131.02C365.418 123.66 362.931 116.238 357.753 110.22C352.575 104.203 345.607 100.635 338.316 99.6293C338.223 106.989 340.711 114.411 345.888 120.429C351.066 126.446 358.034 130.013 365.325 131.02Z" fill="#6CB866"/>
<path d="M359.802 139.119C356.203 132.699 350.338 127.515 342.844 124.893C335.351 122.27 327.533 122.665 320.716 125.439C324.316 131.859 330.181 137.043 337.674 139.666C345.167 142.288 352.985 141.893 359.802 139.119Z" fill="#6CB866"/>
<path d="M397.303 168.823C399.561 161.817 399.371 153.992 396.197 146.715C393.022 139.439 387.415 133.977 380.744 130.866C378.487 137.872 378.677 145.697 381.851 152.974C385.026 160.25 390.633 165.712 397.303 168.823Z" fill="#6CB866"/>
<path d="M389.639 174.935C388.091 167.739 384.014 161.057 377.627 156.342C371.239 151.628 363.652 149.701 356.32 150.343C357.868 157.539 361.945 164.221 368.332 168.935C374.72 173.65 382.307 175.576 389.639 174.935Z" fill="#6CB866"/>
<path d="M416.719 214.372C420.94 208.343 423.065 200.809 422.176 192.92C421.287 185.031 417.539 178.159 412.081 173.221C407.859 179.25 405.734 186.784 406.623 194.673C407.512 202.562 411.261 209.434 416.719 214.372Z" fill="#6CB866"/>
<path d="M407.593 217.954C408.235 210.622 406.308 203.034 401.594 196.647C396.879 190.26 390.197 186.183 383.001 184.635C382.36 191.967 384.286 199.554 389.001 205.942C393.715 212.329 400.397 216.406 407.593 217.954Z" fill="#6CB866"/>
<path d="M421.845 263.62C427.656 259.104 431.907 252.53 433.383 244.73C434.858 236.929 433.301 229.258 429.541 222.931C423.73 227.448 419.479 234.021 418.004 241.821C416.528 249.622 418.085 257.293 421.845 263.62Z" fill="#6CB866"/>
<path d="M412.069 264.354C414.843 257.536 415.238 249.719 412.616 242.226C409.993 234.732 404.809 228.867 398.389 225.268C395.615 232.085 395.22 239.903 397.843 247.396C400.466 254.889 405.649 260.754 412.069 264.354Z" fill="#6CB866"/>
<path d="M412.224 312.193C419.109 309.59 425.109 304.563 428.819 297.544C432.529 290.526 433.304 282.736 431.576 275.581C424.692 278.184 418.692 283.211 414.982 290.23C411.272 297.249 410.497 305.038 412.224 312.193Z" fill="#6CB866"/>
<path d="M402.667 310.011C407.328 304.315 410.011 296.961 409.714 289.027C409.418 281.094 406.194 273.961 401.121 268.629C396.46 274.325 393.777 281.679 394.074 289.612C394.37 297.545 397.594 304.678 402.667 310.011Z" fill="#6CB866"/>
<path d="M388.718 355.771C396.064 355.313 403.279 352.278 408.892 346.664C414.506 341.05 417.542 333.835 418 326.489C410.654 326.947 403.439 329.983 397.825 335.597C392.212 341.21 389.176 348.425 388.718 355.771Z" fill="#6CB866"/>
<path d="M380.228 350.87C386.36 346.8 391.091 340.563 393.146 332.895C395.2 325.227 394.222 317.46 390.946 310.87C384.813 314.939 380.082 321.176 378.028 328.844C375.973 336.512 376.951 344.279 380.228 350.87Z" fill="#6CB866"/>
<path d="M353.41 390.486C360.565 392.213 368.354 391.438 375.373 387.728C382.391 384.018 387.419 378.018 390.021 371.134C382.867 369.406 375.077 370.181 368.059 373.891C361.04 377.601 356.013 383.601 353.41 390.486Z" fill="#6CB866"/>
<path d="M346.742 383.299C353.801 381.218 360.16 376.652 364.383 369.93C368.607 363.208 369.96 355.498 368.772 348.235C361.712 350.316 355.354 354.882 351.13 361.604C346.907 368.326 345.553 376.036 346.742 383.299Z" fill="#6CB866"/>
<path d="M309.436 413.248C315.764 417.008 323.435 418.565 331.236 417.089C339.036 415.614 345.609 411.363 350.126 405.552C343.799 401.792 336.127 400.235 328.327 401.711C320.526 403.186 313.953 407.437 309.436 413.248Z" fill="#6CB866"/>
<path d="M305.184 404.415C312.543 404.508 319.965 402.02 325.983 396.842C332.001 391.664 335.568 384.696 336.574 377.405C329.214 377.313 321.792 379.8 315.775 384.978C309.757 390.156 306.19 397.124 305.184 404.415Z" fill="#6CB866"/>
<path d="M206.634 404.415C205.627 397.124 202.06 390.156 196.043 384.978C190.025 379.8 182.603 377.313 175.243 377.405C176.25 384.696 179.817 391.664 185.834 396.842C191.852 402.02 199.274 404.508 206.634 404.415Z" fill="#6CB866"/>
<path d="M202.381 413.248C197.864 407.437 191.291 403.186 183.49 401.71C175.69 400.235 168.018 401.792 161.691 405.552C166.208 411.363 172.781 415.614 180.582 417.089C188.382 418.565 196.054 417.008 202.381 413.248Z" fill="#6CB866"/>
<path d="M165.076 383.299C166.264 376.036 164.91 368.326 160.687 361.604C156.464 354.882 150.105 350.316 143.045 348.235C141.857 355.498 143.211 363.208 147.434 369.93C151.657 376.652 158.016 381.218 165.076 383.299Z" fill="#6CB866"/>
<path d="M158.407 390.485C155.805 383.601 150.777 377.601 143.759 373.891C136.74 370.181 128.951 369.406 121.796 371.134C124.399 378.018 129.426 384.018 136.445 387.728C143.463 391.438 151.253 392.213 158.407 390.485Z" fill="#6CB866"/>
<path d="M131.59 350.87C134.866 344.279 135.844 336.512 133.79 328.844C131.735 321.176 127.004 314.939 120.872 310.87C117.595 317.46 116.617 325.227 118.672 332.895C120.726 340.563 125.457 346.8 131.59 350.87Z" fill="#6CB866"/>
<path d="M123.1 355.771C122.642 348.425 119.606 341.21 113.992 335.597C108.379 329.983 101.163 326.947 93.8176 326.489C94.2756 333.835 97.3114 341.05 102.925 346.664C108.539 352.278 115.754 355.313 123.1 355.771Z" fill="#6CB866"/>
<path d="M109.15 310.011C114.223 304.678 117.447 297.545 117.744 289.612C118.04 281.679 115.358 274.325 110.697 268.629C105.624 273.961 102.4 281.094 102.103 289.027C101.807 296.961 104.489 304.315 109.15 310.011Z" fill="#6CB866"/>
<path d="M99.5928 312.193C101.32 305.038 100.545 297.249 96.8356 290.23C93.1257 283.211 87.1256 278.184 80.2409 275.581C78.5137 282.736 79.2883 290.526 82.9982 297.544C86.7081 304.563 92.7082 309.59 99.5928 312.193Z" fill="#6CB866"/>
<path d="M99.7479 264.354C106.168 260.754 111.352 254.889 113.974 247.396C116.597 239.903 116.202 232.085 113.428 225.268C107.008 228.867 101.824 234.732 99.2016 242.225C96.579 249.719 96.9738 257.536 99.7479 264.354Z" fill="#6CB866"/>
<path d="M89.972 263.62C93.7321 257.293 95.2889 249.622 93.8135 241.821C92.3382 234.021 88.0873 227.448 82.2762 222.931C78.5161 229.258 76.9594 236.929 78.4347 244.73C79.91 252.53 84.1609 259.104 89.972 263.62Z" fill="#6CB866"/>
<path d="M104.224 217.954C111.42 216.406 118.102 212.329 122.817 205.942C127.531 199.554 129.458 191.967 128.816 184.635C121.62 186.183 114.938 190.26 110.224 196.647C105.509 203.034 103.583 210.622 104.224 217.954Z" fill="#6CB866"/>
<path d="M95.0988 214.372C100.557 209.434 104.305 202.562 105.194 194.673C106.083 186.784 103.958 179.25 99.7364 173.221C94.2786 178.159 90.5301 185.031 89.6411 192.92C88.752 200.809 90.8769 208.343 95.0988 214.372Z" fill="#6CB866"/>
<path d="M122.179 174.935C129.511 175.576 137.098 173.65 143.485 168.935C149.873 164.221 153.95 157.539 155.497 150.343C148.165 149.701 140.578 151.628 134.191 156.342C127.803 161.057 123.726 167.739 122.179 174.935Z" fill="#6CB866"/>
<path d="M114.514 168.823C121.185 165.712 126.792 160.25 129.966 152.974C133.141 145.697 133.33 137.872 131.073 130.866C124.402 133.977 118.795 139.439 115.62 146.715C112.446 153.992 112.256 161.817 114.514 168.823Z" fill="#6CB866"/>
<path d="M152.015 139.119C158.832 141.893 166.65 142.288 174.143 139.666C181.636 137.043 187.502 131.859 191.101 125.439C184.284 122.665 176.466 122.27 168.973 124.893C161.48 127.515 155.614 132.699 152.015 139.119Z" fill="#6CB866"/>
<path d="M146.492 131.02C153.783 130.013 160.751 126.446 165.929 120.429C171.107 114.411 173.594 106.989 173.502 99.6293C166.211 100.635 159.243 104.203 154.065 110.22C148.887 116.238 146.399 123.66 146.492 131.02Z" fill="#6CB866"/>
<path d="M188.962 109.21C195.67 112.238 203.468 112.926 211.054 110.587C218.64 108.247 224.696 103.287 228.534 97.0063C221.825 93.9784 214.028 93.2906 206.442 95.6302C198.855 97.9698 192.8 102.93 188.962 109.21Z" fill="#6CB866"/>
<path d="M192 179L256 147L320 179L256 211L192 179Z" fill="black"/>
<path fill-rule="evenodd" clip-rule="evenodd" d="M292 233.506C280.636 237.076 268.542 239 256 239C243.458 239 231.364 237.076 220 233.506V199L256 217L292 199V233.506Z" fill="black"/>
<path fill-rule="evenodd" clip-rule="evenodd" d="M202.01 286.304C202.003 286.535 202 286.767 202 287C202 300.255 212.745 311 226 311C226.174 311 226.347 310.998 226.52 310.995C239.535 310.718 250 300.081 250 287C250 273.745 239.255 263 226 263C212.978 263 202.378 273.371 202.01 286.304ZM308.895 232.378C292.878 240.041 274.94 244.332 256 244.332C237.06 244.332 219.122 240.041 203.105 232.378C196.375 229.158 189.984 225.343 184 221L203.108 259.215C195.103 265.818 190 275.813 190 287C190 306.882 206.118 323 226 323C228.796 323 231.517 322.681 234.13 322.078C234.252 322.05 234.374 322.021 234.496 321.992L256 365L277.504 321.992C280.228 322.651 283.073 323 286 323C305.882 323 322 306.882 322 287C322 275.816 316.9 265.824 308.899 259.221L308.893 259.215L328 221C322.016 225.343 315.625 229.158 308.895 232.378ZM285.632 310.997C285.754 310.999 285.877 311 286 311C299.255 311 310 300.255 310 287C310 286.717 309.995 286.435 309.985 286.154C309.54 273.291 298.972 263 286 263C272.745 263 262 273.745 262 287C262 300.132 272.547 310.8 285.632 310.997ZM256 306.907C258.74 311.028 262.306 314.552 266.462 317.242L256 338.167L245.538 317.242C249.694 314.552 253.26 311.028 256 306.907Z" fill="black"/>
<path d="M238 287C238 293.627 232.627 299 226 299C219.373 299 214 293.627 214 287C214 280.373 219.373 275 226 275C232.627 275 238 280.373 238 287Z" fill="black"/>
<path d="M298 287C298 293.627 292.627 299 286 299C279.373 299 274 293.627 274 287C274 280.373 279.373 275 286 275C292.627 275 298 280.373 298 287Z" fill="black"/>
</svg>
